<svg width="28" height="28" viewBox="0 0 28 28" fill="none" xmlns="http://www.w3.org/2000/svg">
<path d="M3.73329 24.5C3.02746 24.5 2.42322 24.243 1.92058 23.7289C1.41795 23.2148 1.16663 22.5969 1.16663 21.875V6.125C1.16663 5.40313 1.41795 4.78516 1.92058 4.27109C2.42322 3.75703 3.02746 3.5 3.73329 3.5H24.2666C24.9725 3.5 25.5767 3.75703 26.0793 4.27109C26.582 4.78516 26.8333 5.40313 26.8333 6.125V21.875C26.8333 22.5969 26.582 23.2148 26.0793 23.7289C25.5767 24.243 24.9725 24.5 24.2666 24.5H3.73329ZM14 15.3125L3.73329 8.75V21.875H24.2666V8.75L14 15.3125ZM14 12.6875L24.2666 6.125H3.73329L14 12.6875ZM3.73329 8.75V6.125V21.875V8.75Z" fill="black"/>
</svg>
