<svg width="28" height="28" viewBox="0 0 28 28" fill="none" xmlns="http://www.w3.org/2000/svg">
<g clip-path="url(#clip0_1707_929)">
<path d="M8.20178 0.0980958C6.71218 0.168376 5.69494 0.406096 4.80566 0.755536C3.8853 1.11422 3.10522 1.59554 2.32906 2.3745C1.5529 3.15346 1.07494 3.9341 0.718783 4.85586C0.374103 5.7471 0.140583 6.76518 0.0747827 8.25562C0.00898271 9.74606 -0.0055773 10.2251 0.0017027 14.027C0.0089827 17.8288 0.0257827 18.3054 0.0980227 19.7989C0.169143 21.2882 0.406023 22.3052 0.755463 23.1947C1.1147 24.1151 1.59546 24.8949 2.3747 25.6713C3.15394 26.4478 3.93402 26.9246 4.85802 27.2813C5.74842 27.6255 6.76678 27.8601 8.25694 27.9253C9.7471 27.9906 10.2267 28.0057 14.0275 27.9984C17.8282 27.9911 18.3067 27.9743 19.7999 27.9035C21.2932 27.8327 22.3048 27.5941 23.1947 27.2463C24.115 26.8863 24.8954 26.4063 25.6713 25.6268C26.4471 24.8473 26.9248 24.0661 27.2807 23.1438C27.6257 22.2534 27.86 21.235 27.9247 19.746C27.9899 18.2516 28.0053 17.7745 27.9981 13.9732C27.9908 10.1719 27.9737 9.69538 27.9029 8.20242C27.832 6.70946 27.5949 5.69558 27.2457 4.80546C26.8859 3.8851 26.4057 3.10586 25.6267 2.32886C24.8478 1.55186 24.066 1.07446 23.144 0.719416C22.253 0.374736 21.2352 0.139816 19.7451 0.0754158C18.2549 0.0110158 17.7753 -0.00550424 13.9731 0.00177576C10.171 0.00905576 9.69502 0.0252958 8.20178 0.0980958ZM8.3653 25.4067C7.0003 25.3474 6.25914 25.1206 5.76522 24.9307C5.11114 24.6787 4.64522 24.3741 4.15298 23.8866C3.66074 23.3991 3.35834 22.9315 3.10298 22.2789C2.91118 21.7849 2.68018 21.0446 2.61634 19.6796C2.5469 18.2043 2.53234 17.7613 2.52422 14.0236C2.5161 10.2859 2.53038 9.8435 2.59506 8.36762C2.6533 7.00374 2.8815 6.26174 3.07106 5.7681C3.32306 5.11318 3.62658 4.6481 4.11518 4.15614C4.60378 3.66418 5.06998 3.36122 5.72322 3.10586C6.21658 2.91322 6.9569 2.68418 8.32134 2.61922C9.79778 2.54922 10.2402 2.53522 13.9773 2.5271C17.7145 2.51898 18.158 2.53298 19.635 2.59794C20.9989 2.6573 21.7412 2.88326 22.2343 3.07394C22.8886 3.32594 23.3543 3.62862 23.8462 4.11806C24.3382 4.6075 24.6414 5.07202 24.8968 5.72666C25.0897 6.21862 25.3187 6.95866 25.3831 8.32394C25.4534 9.80038 25.4694 10.2431 25.4761 13.9799C25.4828 17.7168 25.4697 18.1606 25.405 19.6359C25.3453 21.0009 25.1191 21.7424 24.929 22.2369C24.677 22.8907 24.3732 23.3569 23.8843 23.8485C23.3954 24.3402 22.9298 24.6432 22.2763 24.8985C21.7835 25.0909 21.0423 25.3205 19.679 25.3855C18.2025 25.4549 17.7601 25.4695 14.0216 25.4776C10.283 25.4857 9.84202 25.4706 8.36558 25.4067M19.7784 6.51766C19.7789 6.84995 19.878 7.17462 20.0631 7.4506C20.2482 7.72658 20.511 7.94147 20.8182 8.06809C21.1254 8.19472 21.4633 8.22739 21.7891 8.16198C22.1149 8.09657 22.414 7.93601 22.6485 7.70061C22.883 7.46521 23.0425 7.16555 23.1067 6.83951C23.1709 6.51348 23.137 6.17573 23.0093 5.86897C22.8815 5.56221 22.6657 5.30023 22.389 5.11616C22.1123 4.93209 21.7873 4.83419 21.455 4.83486C21.0096 4.83575 20.5827 5.01352 20.2683 5.32909C19.9538 5.64466 19.7776 6.07219 19.7784 6.51766ZM6.81158 14.0141C6.81942 17.9845 10.0439 21.1958 14.0135 21.1883C17.983 21.1807 21.1966 17.9565 21.189 13.9861C21.1815 10.0157 17.9561 6.80354 13.986 6.81138C10.0159 6.81922 6.80402 10.0443 6.81158 14.0141ZM9.33326 14.0091C9.33144 13.0861 9.60335 12.1833 10.1146 11.4148C10.6259 10.6463 11.3536 10.0467 12.2056 9.69184C13.0576 9.33694 13.9958 9.24267 14.9014 9.42094C15.807 9.59922 16.6394 10.042 17.2934 10.6934C17.9473 11.3448 18.3934 12.1754 18.5753 13.0803C18.7572 13.9852 18.6666 14.9237 18.3151 15.7772C17.9635 16.6306 17.3668 17.3606 16.6004 17.8749C15.834 18.3893 14.9323 18.6647 14.0093 18.6666C13.3964 18.6679 12.7893 18.5484 12.2226 18.315C11.6559 18.0816 11.1407 17.7389 10.7065 17.3064C10.2723 16.8739 9.9275 16.3601 9.69188 15.7943C9.45626 15.2286 9.3344 14.6219 9.33326 14.0091Z" fill="black"/>
</g>
<defs>
<clipPath id="clip0_1707_929">
<rect width="28" height="28" fill="white"/>
</clipPath>
</defs>
</svg>
