<svg width="28" height="28" viewBox="0 0 28 28" fill="none" xmlns="http://www.w3.org/2000/svg">
<path d="M27.4169 6.9809C27.0942 5.77543 26.1469 4.82812 24.9414 4.50543C22.7563 3.91998 14 3.91998 14 3.91998C14 3.91998 5.24366 3.91998 3.06092 4.50543C1.85545 4.82812 0.908133 5.77543 0.585446 6.9809C0 9.16364 0 13.7204 0 13.7204C0 13.7204 0 18.2772 0.585446 20.46C0.908133 21.6655 1.85545 22.6128 3.06092 22.9355C5.24366 23.5209 14 23.5209 14 23.5209C14 23.5209 22.7563 23.5209 24.9391 22.9355C26.1445 22.6128 27.0919 21.6655 27.4146 20.46C28 18.2772 28 13.7204 28 13.7204C28 13.7204 28 9.16364 27.4146 6.9809H27.4169Z" fill="#282828"/>
<path d="M11.1995 17.92V9.52094L18.4761 13.7205L11.1995 17.92Z" fill="white"/>
</svg>
