<svg width="65" height="20" viewBox="0 0 65 20" fill="none" xmlns="http://www.w3.org/2000/svg">
<path d="M1.67996 3.62258C1.43963 3.62258 1.21595 3.58244 1.01131 3.50214C0.806668 3.42185 0.628202 3.30613 0.475911 3.15972C0.323619 3.0133 0.207021 2.84091 0.123737 2.6449C0.0404524 2.44889 0 2.23399 0 2.0002C0 1.7664 0.0404524 1.55386 0.123737 1.35549C0.207021 1.15948 0.323619 0.987089 0.475911 0.840672C0.628202 0.694256 0.806668 0.580901 1.01131 0.498247C1.21595 0.415592 1.43963 0.377808 1.67996 0.377808C1.90364 0.377808 2.11542 0.413231 2.31292 0.484078C2.51043 0.554924 2.677 0.658833 2.81739 0.800526L2.72459 0.906796C2.57706 0.765102 2.41763 0.665917 2.24392 0.60924C2.07021 0.550201 1.88461 0.521862 1.68472 0.521862C1.4658 0.521862 1.26354 0.559647 1.07794 0.635217C0.892332 0.710787 0.730523 0.814695 0.590129 0.949304C0.452115 1.08391 0.345035 1.23977 0.268889 1.41925C0.192744 1.59873 0.154671 1.79238 0.154671 2.00492C0.154671 2.21746 0.192744 2.41111 0.268889 2.58822C0.345035 2.7677 0.452115 2.92356 0.590129 3.05817C0.728143 3.19278 0.892332 3.29669 1.07794 3.37226C1.26354 3.44783 1.4658 3.48561 1.68472 3.48561C1.88223 3.48561 2.06783 3.45491 2.2463 3.39587C2.42238 3.33683 2.58181 3.23765 2.71983 3.10068L2.81263 3.2164C2.66986 3.35337 2.50091 3.45727 2.30341 3.52576C2.1059 3.59424 1.89888 3.62967 1.67996 3.62967V3.62258ZM2.66272 3.19986V2.02145H2.81025V3.20931L2.66272 3.19986Z" fill="black"/>
<path d="M5.51343 3.60364L7.01017 0.394287H7.16246L8.6592 3.60364H8.48787L7.05062 0.500557H7.11963L5.68237 3.60364H5.51105H5.51343ZM6.02979 2.66374L6.08928 2.53149H8.06669L8.12618 2.66374H6.02979Z" fill="black"/>
<path d="M11.4576 3.60364V0.394287H11.6146V3.46195H13.5087V3.60364H11.4576Z" fill="black"/>
<path d="M16.3166 3.60364V0.394287H16.4736V3.46195H18.3678V3.60364H16.3166Z" fill="black"/>
<path d="M21.3327 3.46195H23.3601V3.60364H21.1756V0.394287H23.2958V0.53598H21.3327V3.45958V3.46195ZM21.3065 1.90332H23.0888V2.04501H21.3065V1.90332Z" fill="black"/>
<path d="M26.4321 3.60364V0.394287H27.5552C27.8241 0.394287 28.0525 0.436795 28.2453 0.521811C28.438 0.606827 28.5856 0.729628 28.6855 0.88549C28.7878 1.04371 28.8378 1.23264 28.8378 1.45699C28.8378 1.68133 28.7878 1.87026 28.6855 2.03084C28.5832 2.18907 28.4357 2.31187 28.2453 2.39688C28.0525 2.4819 27.8217 2.52441 27.5552 2.52441H26.5201L26.5891 2.4512V3.60128H26.4321V3.60364ZM26.5891 2.45356L26.5201 2.38508H27.5647C27.9288 2.38508 28.2072 2.30478 28.3976 2.14184C28.5879 1.97889 28.6855 1.75218 28.6855 1.45935C28.6855 1.16652 28.5879 0.939806 28.3976 0.77922C28.2048 0.618635 27.9264 0.538342 27.5647 0.538342H26.5201L26.5891 0.465134V2.45356ZM28.7045 3.60364L27.8646 2.43939H28.0454L28.8901 3.60364H28.7045Z" fill="black"/>
<path d="M32.626 3.60372V2.46309L32.6641 2.56936L31.3197 0.396729H31.491L32.7474 2.42294H32.6689L33.93 0.396729H34.0966L32.7474 2.56936L32.7855 2.46309V3.60372H32.6284H32.626Z" fill="black"/>
<path d="M40.2311 3.60364V0.394287H40.3596L41.8849 3.02034H41.8159L43.3316 0.394287H43.4601L43.4649 3.60364H43.3126L43.3078 0.623358H43.3578L41.8896 3.15731H41.8063L40.3286 0.623358H40.3834V3.60364H40.2311Z" fill="black"/>
<path d="M46.2585 3.60364L47.7553 0.394287H47.9075L49.4043 3.60364H49.233L47.7957 0.500557H47.8647L46.4275 3.60364H46.2561H46.2585ZM46.7749 2.66374L46.8344 2.53149H48.8118L48.8713 2.66374H46.7749Z" fill="black"/>
<path d="M52.3597 3.60364H52.2026V0.394287H54.3228V0.53598H52.3597V3.60364ZM52.3335 2.00251H54.1158V2.13948H52.3335V2.00251Z" fill="black"/>
<path d="M59.1081 1.65781C60.167 0.354233 61.935 0.41091 62.161 0.422718C62.5727 0.458141 62.9772 0.540796 63.3627 0.670681C63.791 0.814736 64.1789 1.02964 64.5168 1.30358L64.7619 0.946983C64.3978 0.65415 63.9647 0.427441 63.4698 0.276302C62.8701 0.0921006 62.2467 0 61.6185 0C60.2455 0 59.1795 0.387295 58.4513 1.15244C57.7184 1.9223 57.3472 2.97083 57.3472 4.27205V7.70339H53.7636H53.2187C53.0307 7.70339 51.4197 7.73881 50.1562 8.96918C49.6827 9.42968 49.3115 10.013 49.0545 10.6978L48.7927 11.3992L48.5024 10.7096C48.2359 10.0744 47.8694 9.53359 47.4197 9.10379C46.3489 8.0836 44.7713 7.56642 42.732 7.56642C41.4256 7.56642 40.1549 7.79549 38.958 8.24655C37.8301 8.67163 36.8545 9.25021 36.0597 9.9634L35.8361 10.1641L35.8289 10.157C35.2079 10.6884 33.4755 12.1549 32.7569 12.5682C32.0859 12.9531 31.4648 13.1468 30.9104 13.1468C30.7057 13.1468 30.5059 13.1208 30.3179 13.0665C29.723 12.8988 29.2042 12.4572 28.7712 11.7511L28.7545 11.7228L28.745 11.6921C28.6331 11.3567 28.5023 11.045 28.3571 10.7663C27.8146 9.72252 27.0412 8.92195 26.0585 8.38588C25.0662 7.84508 23.8598 7.57114 22.4749 7.57114C20.6045 7.57114 19.0245 8.05054 17.78 8.9928C16.6783 9.82879 15.8787 10.8962 15.41 12.1667L15.0721 13.0854L14.8436 12.136C14.501 10.7215 13.8276 9.62333 12.8377 8.87472C11.6931 8.01039 10.2249 7.57114 8.46882 7.57114C6.71271 7.57114 5.25166 7.98914 4.07378 8.81332C2.99347 9.56902 2.18442 10.5798 1.67044 11.8196L1.27305 12.7807V7.70811H0.594879V20H1.27305V13.8647C1.41345 13.0452 1.65616 12.2872 2.00833 11.607C2.5937 10.4711 3.44082 9.58082 4.52828 8.9621C5.61098 8.34809 6.91497 8.03637 8.40219 8.03637C8.74009 8.03637 9.06371 8.05526 9.37543 8.08832C11.5718 8.36699 14.3677 9.95159 14.3677 15.9192V19.9976H15.1435V15.5556C15.1435 14.0607 15.4385 12.7311 16.0168 11.6047C16.6021 10.4664 17.4564 9.57846 18.5557 8.95974C19.6408 8.35045 20.9282 8.04109 22.3797 8.03637C24.6236 8.03637 28.1668 9.20298 28.1668 15.9192V19.9976H29.19V14.703C29.19 14.2921 29.1685 13.8836 29.1281 13.4845C29.0829 12.9201 29.5802 13.2011 29.5802 13.2011C29.7872 13.3262 29.999 13.4207 30.2084 13.4797C30.4345 13.5435 30.6748 13.5766 30.9199 13.5766C31.5529 13.5766 32.2453 13.3617 32.983 12.939C33.7635 12.4903 35.61 10.9222 36.1573 10.4499L36.3976 10.2421V10.2468C37.1496 9.61861 38.03 9.09434 39.0223 8.68579C39.898 8.32448 40.8593 8.10721 41.8849 8.03164C44.1217 8.03164 48.0241 8.34573 48.0241 13.8505C48.0241 13.8505 48.1574 15.6784 46.8605 15.6784H41.7135C40.1621 15.6784 38.9176 15.8933 38.011 16.316C37.1234 16.7292 36.4809 17.2842 36.1002 17.9643C35.7504 18.5902 35.5576 19.2726 35.5243 19.9976H36.6927C36.6927 19.9976 36.6189 19.4143 36.7522 18.8027C36.9188 18.0305 37.4113 17.1 38.2465 16.7033C38.8414 16.4199 39.5267 16.1932 40.2763 16.0869C40.7189 16.035 41.1972 16.009 41.7135 16.009H48.5V19.9953H49.0378V13.6451C49.0378 13.5884 49.0354 13.5341 49.0331 13.4797C49.0331 13.4396 49.0283 13.3995 49.0283 13.3593L49.0212 13.057H49.0426C49.0925 11.4016 49.5613 10.1263 50.4394 9.26438C51.5839 8.14028 53.0545 8.10249 53.2187 8.10013H54.0729H57.0617H57.3591V19.9929H58.3728V8.10013H63.7696V7.70103H58.3728V5.46936C58.3728 3.58012 58.5156 2.39698 59.12 1.65309L59.1081 1.65781Z" fill="#768D70"/>
</svg>
