<svg width="88" height="27" viewBox="0 0 88 27" fill="none" xmlns="http://www.w3.org/2000/svg">
<path d="M2.26795 4.89058C1.9435 4.89058 1.64153 4.83637 1.36527 4.72798C1.089 4.61958 0.848073 4.46336 0.642479 4.2657C0.436886 4.06804 0.279478 3.83531 0.167045 3.5707C0.0546107 3.30609 0 3.01598 0 2.70035C0 2.38473 0.0546107 2.09779 0.167045 1.82999C0.279478 1.56219 0.436886 1.33265 0.642479 1.13499C0.848073 0.937325 1.089 0.784292 1.36527 0.672708C1.64153 0.561125 1.9435 0.510132 2.26795 0.510132C2.56992 0.510132 2.85582 0.557938 3.12245 0.653581C3.38908 0.749224 3.61395 0.892697 3.80348 1.08079L3.67819 1.22426C3.47902 1.03616 3.26379 0.899074 3.02929 0.822559C2.79478 0.742857 2.54422 0.704601 2.27438 0.704601C1.97884 0.704601 1.70578 0.755604 1.45522 0.857624C1.20465 0.959643 0.986206 1.09992 0.796674 1.28165C0.610355 1.46337 0.465797 1.67378 0.363001 1.91607C0.260204 2.15837 0.208806 2.4198 0.208806 2.70354C0.208806 2.98729 0.260204 3.25189 0.363001 3.491C0.465797 3.73329 0.610355 3.9437 0.796674 4.12542C0.982993 4.30715 1.20465 4.44743 1.45522 4.54945C1.70578 4.65147 1.97884 4.70247 2.27438 4.70247C2.54101 4.70247 2.79157 4.66102 3.0325 4.58132C3.27022 4.50162 3.48545 4.36772 3.67177 4.18281L3.79705 4.33902C3.60431 4.52393 3.37623 4.66423 3.1096 4.75668C2.84297 4.84914 2.56349 4.89694 2.26795 4.89694V4.89058ZM3.59467 4.31989V2.72904H3.79384V4.33266L3.59467 4.31989Z" fill="white"/>
<path d="M7.44315 4.86508L9.46375 0.532471H9.66934L11.6899 4.86508H11.4586L9.51836 0.67592H9.61152L7.67123 4.86508H7.43994H7.44315ZM8.14024 3.59623L8.22055 3.4177H10.8901L10.9704 3.59623H8.14024Z" fill="white"/>
<path d="M15.4677 4.86508V0.532471H15.6797V4.67381H18.2367V4.86508H15.4677Z" fill="white"/>
<path d="M22.0273 4.86508V0.532471H22.2394V4.67381H24.7964V4.86508H22.0273Z" fill="white"/>
<path d="M28.7992 4.67381H31.5361V4.86508H28.5872V0.532471H31.4494V0.723749H28.7992V4.67062V4.67381ZM28.7638 2.56965H31.1699V2.76095H28.7638V2.56965Z" fill="white"/>
<path d="M35.6833 4.86508V0.532471H37.1996C37.5626 0.532471 37.871 0.589849 38.1312 0.704621C38.3914 0.819393 38.5906 0.985167 38.7255 1.19558C38.8636 1.40918 38.9311 1.66425 38.9311 1.96711C38.9311 2.26998 38.8636 2.52503 38.7255 2.74182C38.5874 2.95542 38.3882 3.1212 38.1312 3.23597C37.871 3.35074 37.5594 3.40812 37.1996 3.40812H35.8022L35.8954 3.30929V4.86189H35.6833V4.86508ZM35.8954 3.31248L35.8022 3.22003H37.2125C37.7039 3.22003 38.0798 3.11163 38.3368 2.89165C38.597 2.67167 38.7255 2.36561 38.7255 1.97029C38.7255 1.57496 38.5938 1.2689 38.3368 1.05211C38.0766 0.835322 37.7007 0.72694 37.2125 0.72694H35.8022L35.8954 0.62811V3.31248ZM38.7512 4.86508L37.6172 3.29335H37.8614L39.0018 4.86508H38.7512Z" fill="white"/>
<path d="M44.0452 4.86509V3.32523L44.0966 3.4687L42.2816 0.535645H42.5129L44.2091 3.27104H44.103L45.8056 0.535645H46.0305L44.2091 3.4687L44.2604 3.32523V4.86509H44.0484H44.0452Z" fill="white"/>
<path d="M54.312 4.86508V0.532471H54.4855L56.5446 4.07763H56.4515L58.4978 0.532471H58.6712L58.6777 4.86508H58.4721L58.4656 0.841707H58.5331L56.5511 4.26253H56.4386L54.4437 0.841707H54.5176V4.86508H54.312Z" fill="white"/>
<path d="M62.449 4.86508L64.4696 0.532471H64.6752L66.6958 4.86508H66.4645L64.5242 0.67592H64.6174L62.6771 4.86508H62.4458H62.449ZM63.1461 3.59623L63.2264 3.4177H65.8959L65.9762 3.59623H63.1461Z" fill="white"/>
<path d="M70.6855 4.86508H70.4735V0.532471H73.3358V0.723749H70.6855V4.86508ZM70.6502 2.70674H73.0563V2.89165H70.6502V2.70674Z" fill="white"/>
<path d="M79.7959 2.23805C81.2254 0.478221 83.6122 0.554741 83.9174 0.570682C84.4732 0.618503 85.0193 0.730083 85.5397 0.905428C86.1179 1.0999 86.6415 1.39002 87.0977 1.75984L87.4286 1.27843C86.9371 0.883106 86.3524 0.57706 85.6842 0.373021C84.8747 0.12435 84.0331 0 83.185 0C81.3314 0 79.8923 0.52285 78.9093 1.55579C77.9199 2.59511 77.4187 4.01064 77.4187 5.76728V10.3996H72.5809H71.8452C71.5915 10.3996 69.4167 10.4474 67.7109 12.1084C67.0716 12.7301 66.5705 13.5175 66.2235 14.4421L65.8702 15.389L65.4783 14.458C65.1185 13.6004 64.6238 12.8703 64.0166 12.2901C62.571 10.9129 60.4412 10.2147 57.6882 10.2147C55.9246 10.2147 54.2092 10.5239 52.5933 11.1329C51.0707 11.7067 49.7536 12.4878 48.6807 13.4506L48.3787 13.7216L48.369 13.712C47.5306 14.4293 45.192 16.4091 44.2218 16.9671C43.3159 17.4867 42.4775 17.7482 41.729 17.7482C41.4528 17.7482 41.1829 17.7131 40.9291 17.6398C40.126 17.4134 39.4257 16.8172 38.8411 15.864L38.8186 15.8257L38.8057 15.7843C38.6548 15.3316 38.4781 14.9107 38.2821 14.5345C37.5497 13.1254 36.5057 12.0446 35.1789 11.3209C33.8394 10.5909 32.2107 10.221 30.3411 10.221C27.8161 10.221 25.6831 10.8682 24.003 12.1403C22.5157 13.2689 21.4363 14.7099 20.8035 16.4251L20.3473 17.6653L20.0389 16.3836C19.5763 14.474 18.6672 12.9915 17.3309 11.9809C15.7857 10.814 13.8037 10.221 11.4329 10.221C9.06217 10.221 7.08976 10.7853 5.49962 11.898C4.0412 12.9182 2.94898 14.2827 2.2551 15.9564L1.71863 17.254V10.406H0.803101V27H1.71863V18.7173C1.90816 17.6111 2.23583 16.5877 2.71126 15.6695C3.50151 14.136 4.64513 12.9341 6.11319 12.0988C7.57483 11.2699 9.33522 10.8491 11.343 10.8491C11.7991 10.8491 12.236 10.8746 12.6568 10.9192C15.6219 11.2954 19.3964 13.4347 19.3964 21.491V26.9968H20.4437V21C20.4437 18.9819 20.842 17.187 21.6226 15.6663C22.4129 14.1297 23.5661 12.9309 25.0503 12.0956C26.5151 11.2731 28.253 10.8555 30.2126 10.8491C33.2419 10.8491 38.0251 12.424 38.0251 21.491V26.9968H39.4065V19.8491C39.4065 19.2944 39.3775 18.7428 39.3229 18.204C39.2619 17.4421 39.9333 17.8215 39.9333 17.8215C40.2128 17.9904 40.4987 18.118 40.7814 18.1977C41.0865 18.2837 41.411 18.3284 41.7419 18.3284C42.5964 18.3284 43.5312 18.0383 44.527 17.4676C45.5807 16.8619 48.0735 14.745 48.8124 14.1073L49.1368 13.8268V13.8332C50.1519 12.9851 51.3405 12.2774 52.6801 11.7258C53.8622 11.2381 55.1601 10.9447 56.5446 10.8427C59.5642 10.8427 64.8326 11.2667 64.8326 18.6982C64.8326 18.6982 65.0125 21.1658 63.2617 21.1658H56.3133C54.2188 21.1658 52.5387 21.4559 51.3148 22.0266C50.1166 22.5845 49.2492 23.3337 48.7353 24.2519C48.263 25.0967 48.0028 26.0181 47.9579 26.9968H49.5352C49.5352 26.9968 49.4356 26.2094 49.6155 25.3836C49.8403 24.3411 50.5053 23.085 51.6328 22.5494C52.4359 22.1669 53.3611 21.8608 54.373 21.7173C54.9705 21.6472 55.6162 21.6121 56.3133 21.6121H65.4751V26.9936H66.2011V18.4208C66.2011 18.3443 66.1978 18.271 66.1946 18.1977C66.1946 18.1435 66.1882 18.0893 66.1882 18.0351L66.1786 17.627H66.2075C66.2749 15.3921 66.9078 13.6706 68.0932 12.5069C69.6383 10.9894 71.6236 10.9384 71.8452 10.9352H72.9985H77.0333H77.4348V26.9904H78.8033V10.9352H86.089V10.3964H78.8033V7.38365C78.8033 4.83317 78.996 3.23592 79.812 2.23167L79.7959 2.23805Z" fill="white"/>
</svg>
