<svg width="28" height="28" viewBox="0 0 28 28" fill="none" xmlns="http://www.w3.org/2000/svg">
<path d="M27.4169 6.98084C27.0942 5.77537 26.1469 4.82805 24.9414 4.50537C22.7563 3.91992 14 3.91992 14 3.91992C14 3.91992 5.24366 3.91992 3.06092 4.50537C1.85545 4.82805 0.908133 5.77537 0.585446 6.98084C0 9.16358 0 13.7204 0 13.7204C0 13.7204 0 18.2772 0.585446 20.4599C0.908133 21.6654 1.85545 22.6127 3.06092 22.9354C5.24366 23.5208 14 23.5208 14 23.5208C14 23.5208 22.7563 23.5208 24.9391 22.9354C26.1445 22.6127 27.0919 21.6654 27.4146 20.4599C28 18.2772 28 13.7204 28 13.7204C28 13.7204 28 9.16358 27.4146 6.98084H27.4169Z" fill="#282828"/>
<path d="M11.1995 17.9201V9.521L18.4761 13.7205L11.1995 17.9201Z" fill="white"/>
</svg>
